<?xml version="1.0" encoding="UTF-8" standalone="no"?>
<!DOCTYPE svg PUBLIC "-//W3C//DTD SVG 1.1//EN" "http://www.w3.org/Graphics/SVG/1.1/DTD/svg11.dtd">
<svg width="100%" height="100%" viewBox="0 0 24 24" version="1.1" xmlns="http://www.w3.org/2000/svg" xmlns:xlink="http://www.w3.org/1999/xlink" xml:space="preserve" xmlns:serif="http://www.serif.com/" style="fill-rule:evenodd;clip-rule:evenodd;stroke-linejoin:round;stroke-miterlimit:1.41421;">
    <g id="Forma-1" serif:id="Forma 1" transform="matrix(1,0,0,1,-1050.5,-460)">
        <path d="M1069.7,478.65L1069.7,474.74C1069.7,474.367 1069.99,474.065 1070.35,474.065C1070.71,474.065 1071,474.367 1071,474.74L1071,479.043C1071,479.093 1070.98,479.137 1070.97,479.183C1070.98,479.23 1071,479.274 1071,479.324C1071,479.696 1070.71,479.999 1070.35,479.999L1054.65,479.999C1054.29,479.999 1054,479.696 1054,479.324C1054,479.274 1054.02,479.23 1054.03,479.183C1054.02,479.137 1054,479.093 1054,479.043L1054,474.74C1054,474.367 1054.29,474.065 1054.65,474.065C1055.01,474.065 1055.3,474.367 1055.3,474.74L1055.3,478.65L1069.7,478.65ZM1062.54,464.001C1062.18,464.001 1061.89,464.303 1061.89,464.676L1061.89,474.531L1059.07,471.592C1058.82,471.329 1058.41,471.329 1058.16,471.592C1057.9,471.856 1057.9,472.283 1058.16,472.546L1062.08,476.636C1062.21,476.768 1062.38,476.834 1062.54,476.834C1062.71,476.834 1062.87,476.768 1063,476.636L1066.92,472.546C1067.18,472.283 1067.18,471.856 1066.92,471.592C1066.67,471.329 1066.26,471.329 1066.01,471.592L1063.19,474.531L1063.19,464.676C1063.19,464.303 1062.9,464.001 1062.54,464.001Z" style="fill:rgb(91,91,91);"/>
    </g>
</svg>
